<?xml version="1.0" encoding="UTF-8"?>
<!DOCTYPE svg PUBLIC "-//W3C//DTD SVG 1.1//EN" "http://www.w3.org/Graphics/SVG/1.1/DTD/svg11.dtd">
<!-- Creator: CorelDRAW 2018 (64-Bit) -->
<svg xmlns="http://www.w3.org/2000/svg" xml:space="preserve" width="135.276mm" height="50mm" version="1.1" style="shape-rendering:geometricPrecision; text-rendering:geometricPrecision; image-rendering:optimizeQuality; fill-rule:evenodd; clip-rule:evenodd"
viewBox="0 0 11913.53 4403.4"
 xmlns:xlink="http://www.w3.org/1999/xlink">
 <defs>
  <style type="text/css">
   <![CDATA[
    .fil1 {fill:#2B2A29;fill-rule:nonzero}
    .fil2 {fill:#1F1B20;fill-rule:nonzero}
    .fil3 {fill:#00A0E3;fill-rule:nonzero}
    .fil0 {fill:#008DD2;fill-rule:nonzero}
   ]]>
  </style>
 </defs>
 <g id="Layer_x0020_1">
  <metadata id="CorelCorpID_0Corel-Layer"/>
  <path class="fil0" d="M5967.14 2072.94c-215.5,0 -386.52,-65.24 -513.06,-195.73 -126.86,-130.49 -190.13,-313.7 -190.13,-550.29 0,-228.03 63.59,-409.59 190.46,-545.35 127.19,-135.42 298.21,-203.3 513.71,-203.3 57.02,0 108.75,3.29 154.22,9.56 45.8,6.58 89.28,15.47 131.13,27.02 32.96,9.87 68.54,23.07 107.1,39.86 38.56,16.49 69.85,30.97 93.58,43.17l0 343.03 -36.58 0c-17.46,-15.49 -39.21,-33.62 -65.57,-55.04 -26.68,-21.42 -56.35,-42.51 -89.96,-62.92 -33.28,-20.44 -70.19,-37.9 -110.38,-52.39 -40.19,-14.17 -82.37,-21.42 -126.2,-21.42 -52.07,0 -99.85,8.23 -143.35,24.71 -43.16,16.14 -84.67,44.8 -123.89,85.01 -35.91,36.57 -65.58,86.33 -88.31,148.61 -22.74,62.28 -34.27,135.76 -34.27,220.44 0,89.3 11.85,164.42 35.59,225.07 24.06,60.62 55.02,109.72 93.91,146.95 37.24,35.93 78.76,61.95 124.89,78.11 45.8,16.14 91.93,24.04 137.41,24.04 47.77,0 92.92,-7.9 136.08,-23.38 43.17,-15.5 79.74,-32.96 109.07,-52.07 32.29,-19.45 60.63,-39.53 85,-59.97 24.39,-20.42 45.8,-38.54 63.6,-54.36l32.96 0 0 337.41c-26.36,12.2 -57.01,26.03 -91.61,41.85 -34.6,15.82 -70.52,28.99 -107.09,39.87 -45.13,13.52 -86.98,23.73 -126.2,30.98 -39.22,6.91 -93.25,10.54 -162.12,10.54zm1696 -27.69l-338.08 0 0 -537.11c0,-43.81 -1.65,-87.31 -5.28,-130.82 -3.62,-43.49 -10.22,-75.45 -20.11,-95.88 -11.53,-24.39 -28.34,-42.18 -50.41,-52.73 -22.09,-10.55 -51.41,-15.82 -88.31,-15.82 -28.01,0 -56.02,5.27 -84.69,15.49 -28.34,10.22 -58.99,26.68 -91.27,49.1l0 767.76 -338.09 0 0 -1502.57 338.09 0 0 539.08c55.35,-47.13 109.4,-83.71 161.79,-110.07 52.38,-26.36 110.72,-39.53 174.31,-39.53 110.71,0 195.4,34.93 254.06,104.78 58.65,69.53 87.98,170.68 87.98,303.15l0 705.16zm587.52 0l-338.08 0 0 -1083.43 338.08 0 0 1083.43zm9.87 -1237.65l-357.85 0 0 -262.95 357.85 0 0 262.95zm586.87 1237.65l-338.08 0 0 -1502.57 338.08 0 0 1502.57zm596.76 0l-338.08 0 0 -1502.57 338.08 0 0 1502.57z"/>
  <path class="fil1" d="M9564.43 2045.26l485.04 -1437.33 235.92 0 485.05 1437.33 -202.32 0 -129.84 -399.36 -550.28 0 -129.5 399.36 -194.08 0zm819.83 -565.45l-221.44 -674.83 -220.77 674.83 442.21 0zm693.95 565.45l-181.89 0 0 -1077.5 181.89 0 0 1077.5zm13.84 -1259.39l-207.6 0 0 -187.83 207.6 0 0 187.83zm821.48 377.62l-9.56 0c-13.5,-3.63 -28.01,-5.6 -42.84,-6.6 -15.17,-0.98 -33.28,-1.32 -54.7,-1.32 -48.77,0 -97.2,10.56 -145.64,31.63 -48.12,21.43 -93.59,52.73 -136.75,94.58l0 763.48 -181.89 0 0 -1077.5 181.89 0 0 160.14c66.24,-58.65 123.89,-99.85 172.99,-123.89 49.1,-24.06 96.87,-36.25 143.33,-36.25 18.47,0 32.64,0.33 41.85,1.32 9.23,0.98 19.77,2.62 31.32,4.61l0 189.8zm-6168.17 2697.23c-104.12,0 -192.75,-10.87 -265.59,-32.29 -73.15,-21.74 -141.69,-48.43 -205.94,-79.75l0 -239.89 13.5 0c62.94,59 134.11,104.8 213.86,137.09 79.41,32.61 156.18,48.76 230,48.76 105.12,0 184.85,-22.07 238.88,-65.9 53.72,-44.16 80.73,-101.82 80.73,-173.64 0,-57.35 -14.17,-103.8 -42.18,-139.73 -28.34,-35.91 -73.14,-62.6 -134.44,-79.74 -44.48,-12.85 -85.01,-23.72 -121.6,-31.96 -36.57,-8.24 -82.7,-19.77 -138.06,-33.94 -49.43,-12.86 -93.92,-29 -133.13,-49.1 -39.22,-19.76 -73.81,-45.8 -104.13,-78.09 -29.65,-31.63 -52.72,-68.54 -68.87,-111.39 -16.46,-42.84 -24.71,-92.26 -24.71,-148.28 0,-116.32 45.48,-213.86 136.09,-292.61 90.96,-78.74 206.62,-118.29 347.65,-118.29 80.39,0 156.51,7.92 228.34,24.06 71.85,16.13 138.06,39.21 199.36,68.86l0 229.34 -14.5 0c-45.48,-41.84 -104.12,-78.42 -175.63,-109.4 -71.17,-31.3 -145.98,-46.79 -224.4,-46.79 -88.97,0 -160.47,20.76 -215.17,61.96 -54.7,41.52 -82.06,95.89 -82.06,163.44 0,60.63 16.16,109.06 48.12,145.32 31.96,35.91 78.42,61.95 139.04,78.74 40.55,10.89 90.3,23.41 148.62,37.24 58.64,13.84 107.09,26.38 145.64,38.23 99.19,29.99 171.68,75.78 217.16,136.75 45.8,61.3 68.53,136.41 68.53,225.72 0,56.02 -11.52,111.38 -34.27,166.07 -22.74,54.7 -54.69,101.15 -95.88,139.06 -46.13,41.85 -98.52,73.81 -156.85,96.55 -57.99,22.4 -130.83,33.61 -218.14,33.61zm1157.92 -1.97c-172.01,0 -305.8,-48.45 -401.03,-145 -95.23,-96.54 -142.68,-233.94 -142.68,-411.89 0,-175.31 46.13,-314.69 138.41,-418.49 91.93,-103.79 212.53,-155.53 361.48,-155.53 67.22,0 126.52,9.56 177.93,29 51.73,19.12 96.87,49.43 135.42,90.61 38.89,41.19 68.54,91.28 88.98,150.92 20.77,59.3 30.96,132.14 30.96,218.13l0 98.53 -749.3 0c0,124.89 31.63,220.44 94.89,286.35 63.26,66.23 150.92,99.18 262.62,99.18 39.88,0 79.41,-4.61 117.64,-13.52 38.56,-8.89 73.16,-20.76 104.12,-34.93 32.96,-14.82 60.97,-28.98 83.37,-42.84 22.74,-13.84 41.53,-27.01 56.35,-39.2l10.55 0 0 198.03c-21.42,8.24 -47.79,18.78 -79.42,31.31 -31.63,12.52 -59.97,22.4 -85.01,29.32 -35.58,9.56 -67.54,17.14 -96.21,22.4 -28.68,4.95 -65.26,7.59 -109.07,7.59zm213.52 -682.1c-1.32,-48.77 -7.25,-90.96 -17.46,-126.21 -10.22,-35.26 -25.38,-65.24 -44.48,-89.63 -21.43,-26.69 -48.76,-47.45 -82.05,-61.62 -33.28,-14.17 -74.46,-21.09 -123.89,-21.09 -48.45,0 -89.63,7.27 -123.57,21.76 -33.93,14.5 -64.91,35.25 -92.59,62.92 -27.35,28.34 -47.79,59.65 -62.27,93.92 -14.17,34.26 -23.07,74.47 -27.02,119.94l573.35 0zm929.88 -223.41l-9.55 0c-13.52,-3.62 -28.01,-5.6 -42.85,-6.6 -15.16,-0.98 -33.27,-1.32 -54.7,-1.32 -48.76,0 -97.21,10.56 -145.64,31.63 -48.12,21.43 -93.58,52.73 -136.76,94.58l0 763.48 -181.89 0 0 -1077.5 181.89 0 0 160.14c66.24,-58.65 123.9,-99.85 173,-123.89 49.09,-24.05 96.87,-36.25 143.33,-36.25 18.46,0 32.63,0.33 41.85,1.32 9.24,0.98 19.77,2.62 31.31,4.61l0 189.8zm1447.88 -195.73l-272.83 1077.5 -167.73 0 -263.28 -830.7 -261.3 830.7 -166.75 0 -275.79 -1077.5 187.81 0 191.13 834.32 255.37 -834.32 149.59 0 262.29 834.32 179.91 -834.32 181.56 0zm348.31 1077.5l-181.9 0 0 -1077.5 181.9 0 0 1077.5zm13.84 -1259.39l-207.59 0 0 -187.83 207.59 0 0 187.83zm542.38 1283.12c-71.84,0 -139.06,-9.56 -201.66,-29.01 -62.94,-19.44 -114.67,-39.87 -155.87,-61.94l0 -203.65 9.56 0c15.49,12.2 33.62,26.03 54.37,40.87 20.75,15.15 48.43,30.64 83.04,46.78 30.63,14.5 64.25,27.03 101.15,38.23 36.91,10.87 75.14,16.47 114.67,16.47 28.67,0 59.32,-3.29 91.93,-10.22 32.63,-6.58 57.02,-15.15 73.16,-25.7 22.4,-14.83 38.56,-30.65 48.44,-47.44 9.89,-16.82 14.83,-42.18 14.83,-75.79 0,-43.16 -11.54,-75.79 -34.6,-97.88 -23.06,-21.74 -64.25,-40.19 -122.91,-55.02 -23.07,-5.92 -53.38,-12.52 -90.94,-19.76 -37.24,-7.57 -71.84,-15.83 -103.47,-24.72 -82.04,-23.72 -142.03,-60.63 -179.26,-110.38 -37.24,-49.76 -56.01,-110.06 -56.01,-180.9 0,-96.87 36.57,-175.96 110.06,-237.26 73.48,-60.95 170.69,-91.61 292.28,-91.61 59.97,0 120.27,7.59 180.57,22.41 60.63,14.82 111.37,33.29 152.57,56.02l0 194.41 -9.56 0c-46.13,-37.23 -97.53,-66.56 -154.2,-88.31 -56.68,-21.42 -114.02,-32.29 -171.69,-32.29 -59.3,0 -109.72,12.52 -150.59,37.89 -41.18,25.05 -61.62,62.95 -61.62,114.02 0,45.13 12.2,78.74 36.26,101.15 24.04,22.09 62.6,40.2 115.65,54.7 27.03,6.92 57.02,13.84 90.29,20.44 32.96,6.91 67.88,14.81 104.79,23.72 79.74,20.11 139.71,53.04 179.91,99.19 40.2,46.46 60.29,109.4 60.29,189.13 0,46.14 -9.21,90.29 -27.34,131.47 -18.46,41.53 -45.15,77.11 -80.73,106.77 -38.56,31.96 -82.06,56.35 -130.49,73.14 -48.45,16.82 -109.4,25.06 -182.88,25.06z"/>
  <path class="fil1" d="M774.48 3405.32c-61.66,0 -120.91,15.39 -173.49,44.27 -276.96,-355.02 -428.98,-796.06 -428.98,-1247.9 0,-1119.19 910.5,-2029.69 2029.69,-2029.69 136.07,0 272.06,13.54 404.23,40.26 46.5,9.4 91.91,-20.7 101.31,-67.27 9.42,-46.55 -20.68,-91.92 -67.25,-101.36 -143.35,-28.96 -290.81,-43.63 -438.29,-43.63 -588.09,0 -1141,229.02 -1556.85,644.85 -415.83,415.85 -644.86,968.77 -644.86,1556.85 0,494.7 167.98,977.46 473.8,1364.47 -39.38,58.83 -60.53,127.96 -60.53,200.36 0,96.49 37.58,187.19 105.82,255.4 68.19,68.24 158.9,105.81 255.39,105.81 96.48,0 187.2,-37.58 255.43,-105.81 68.23,-68.21 105.79,-158.95 105.79,-255.42 0,-96.45 -37.56,-187.2 -105.79,-255.41 -68.24,-68.23 -158.95,-105.79 -255.43,-105.79zm133.78 495c-35.72,35.74 -83.25,55.44 -133.78,55.44 -50.53,0 -98.05,-19.7 -133.78,-55.44 -35.74,-35.75 -55.44,-83.25 -55.44,-133.78 0,-50.55 19.7,-98.06 55.44,-133.8 35.72,-35.74 83.25,-55.39 133.78,-55.39 50.52,0 98.02,19.67 133.78,55.39 35.75,35.74 55.42,83.25 55.42,133.8 0,50.53 -19.67,98.05 -55.42,133.78z"/>
  <path class="fil0" d="M3929.56 837.11c93.49,-140.25 78.47,-332.02 -45.2,-455.67 -68.23,-68.21 -158.94,-105.8 -255.41,-105.8 -96.49,0 -187.19,37.6 -255.42,105.8 -68.24,68.23 -105.79,158.94 -105.79,255.41 0,96.5 37.55,187.2 105.79,255.42 68.24,68.24 158.94,105.79 255.42,105.79 61.64,0 120.91,-15.39 173.49,-44.27 276.96,355.07 428.97,796.08 428.97,1247.9 0,1119.19 -910.49,2029.69 -2029.69,2029.69 -134.71,0 -269.44,-13.27 -400.36,-39.47 -46.55,-9.31 -91.88,20.89 -101.22,67.46 -9.31,46.6 20.89,91.89 67.45,101.22 142.02,28.38 288.09,42.81 434.12,42.81 588.09,0 1141,-229.02 1556.85,-644.87 415.85,-415.85 644.87,-968.75 644.87,-1556.85 0,-494.72 -168.02,-977.52 -473.87,-1364.57zm-434.39 -66.44c-35.75,-35.75 -55.44,-83.25 -55.44,-133.82 0,-50.53 19.69,-98.02 55.44,-133.77 35.7,-35.76 83.25,-55.44 133.78,-55.44 50.52,0 98.06,19.68 133.81,55.44 73.73,73.77 73.73,193.81 0,267.59 -35.75,35.7 -83.29,55.4 -133.81,55.4 -50.57,0 -98.07,-19.7 -133.78,-55.4z"/>
  <path class="fil1" d="M2993.63 325.26c22.63,0 44.81,-9.2 60.81,-25.2 15.98,-16.09 25.2,-38.27 25.2,-60.92 0,-22.51 -9.19,-44.7 -25.2,-60.8 -16,-15.99 -38.18,-25.2 -60.81,-25.2 -22.72,0 -44.79,9.2 -60.78,25.2 -16.02,16.1 -25.24,38.2 -25.24,60.8 0,22.72 9.22,44.83 25.24,60.92 15.98,15.99 38.05,25.2 60.78,25.2z"/>
  <path class="fil0" d="M1413.56 4079.68c-22.61,0 -44.81,9.2 -60.81,25.2 -15.99,15.98 -25.2,38.2 -25.2,60.79 0,22.72 9.2,44.83 25.2,60.81 16,16 38.2,25.2 60.81,25.2 22.62,0 44.81,-9.19 60.81,-25.2 15.98,-15.98 25.2,-38.2 25.2,-60.81 0,-22.6 -9.21,-44.81 -25.2,-60.79 -16,-15.99 -38.2,-25.2 -60.81,-25.2z"/>
  <path class="fil1" d="M1301.5 3299.82c180.28,0 351.58,-86.91 458.22,-232.51 11.98,-16.35 8.44,-39.3 -7.91,-51.28 -16.3,-11.99 -39.35,-8.44 -51.28,7.93 -92.89,126.77 -242.03,202.49 -399.03,202.49 -272.48,0 -494.2,-221.54 -494.2,-493.85 0,-272.29 221.72,-493.83 494.2,-493.83l2331.33 0c20.28,0 36.69,-16.42 36.69,-36.7 0,-20.26 -16.41,-36.69 -36.69,-36.69l-2331.33 0c-312.98,0 -567.59,254.45 -567.59,567.21 0,312.78 254.61,567.24 567.59,567.24z"/>
  <path class="fil1" d="M2032.39 1157.48c109.62,0 213.79,52.86 278.66,141.38 12,16.36 34.94,19.84 51.28,7.91 16.35,-11.96 19.88,-34.94 7.93,-51.28 -78.64,-107.32 -204.92,-171.4 -337.86,-171.4 -230.74,0 -418.45,187.61 -418.45,418.2 0,230.59 187.71,418.18 418.45,418.18l1600.08 0c20.27,0 36.7,-16.44 36.7,-36.7 0,-20.27 -16.42,-36.69 -36.7,-36.69l-1600.08 0c-190.24,0 -345.06,-154.67 -345.06,-344.8 0,-190.11 154.81,-344.8 345.06,-344.8z"/>
  <path class="fil1" d="M3632.82 2482.94l-993.86 0c-230.7,0 -418.41,187.59 -418.41,418.16 0,230.61 187.7,418.2 418.41,418.2 132.95,0 259.23,-64.08 337.86,-171.4 11.96,-16.35 8.42,-39.3 -7.92,-51.28 -16.31,-11.94 -39.29,-8.46 -51.29,7.93 -64.86,88.51 -169.04,141.36 -278.66,141.36 -190.24,0 -345.02,-154.67 -345.02,-344.8 0,-190.11 154.77,-344.78 345.02,-344.78l993.86 0c20.28,0 36.69,-16.44 36.69,-36.7 0,-20.27 -16.41,-36.7 -36.69,-36.7l0 0.01z"/>
  <path class="fil2" d="M1027.68 1970.16c161.97,0 293.78,-131.78 293.78,-293.75 0,-161.98 -131.8,-293.76 -293.78,-293.76 -161.97,0 -293.78,131.78 -293.78,293.76 0,161.97 131.8,293.75 293.78,293.75zm0 -514.12c121.53,0 220.39,98.86 220.39,220.37 0,121.51 -98.87,220.36 -220.39,220.36 -121.53,0 -220.39,-98.86 -220.39,-220.36 0,-121.52 98.87,-220.37 220.39,-220.37z"/>
  <path class="fil2" d="M1102 984.7c0,138.3 112.52,250.81 250.82,250.81 138.28,0 250.81,-112.51 250.81,-250.81 0,-138.31 -112.52,-250.82 -250.81,-250.82 -138.29,0 -250.82,112.51 -250.82,250.82zm428.24 0c0,97.83 -79.6,177.41 -177.42,177.41 -97.83,0 -177.43,-79.59 -177.43,-177.41 0,-97.83 79.6,-177.42 177.43,-177.42 97.82,0 177.42,79.59 177.42,177.42z"/>
  <path class="fil2" d="M1710.66 3418.69c0,138.31 112.52,250.81 250.82,250.81 138.28,0 250.81,-112.5 250.81,-250.81 0,-138.29 -112.52,-250.81 -250.81,-250.81 -138.29,0 -250.82,112.52 -250.82,250.81zm428.24 0c0,97.83 -79.6,177.42 -177.42,177.42 -97.83,0 -177.43,-79.6 -177.43,-177.42 0,-97.83 79.6,-177.42 177.43,-177.42 97.83,0 177.42,79.59 177.42,177.42z"/>
  <polygon class="fil3" points="3123.53,1426.01 3112.38,1384.39 3014.59,1410.59 2884.16,1335.29 3014.59,1259.98 3112.38,1286.18 3123.53,1244.55 3067.36,1229.51 3134.82,1190.55 3113.27,1153.24 3045.82,1192.19 3060.87,1136.02 3019.24,1124.87 2993.04,1222.65 2862.61,1297.96 2862.61,1147.34 2934.19,1075.76 2903.73,1045.29 2862.61,1086.41 2862.61,1008.5 2819.52,1008.5 2819.52,1086.41 2778.4,1045.29 2747.94,1075.76 2819.52,1147.34 2819.52,1297.96 2689.09,1222.65 2662.88,1124.87 2621.26,1136.02 2636.31,1192.19 2568.86,1153.24 2547.31,1190.55 2614.77,1229.51 2558.6,1244.55 2569.74,1286.18 2667.54,1259.98 2797.98,1335.29 2667.54,1410.59 2569.74,1384.39 2558.6,1426.01 2614.77,1441.07 2547.31,1480.01 2568.86,1517.33 2636.31,1478.39 2621.26,1534.55 2662.88,1545.71 2689.09,1447.91 2819.52,1372.6 2819.52,1523.22 2747.94,1594.81 2778.4,1625.29 2819.52,1584.17 2819.52,1662.05 2862.61,1662.05 2862.61,1584.17 2903.73,1625.29 2934.19,1594.81 2862.61,1523.22 2862.61,1372.6 2993.04,1447.91 3019.24,1545.71 3060.87,1534.55 3045.82,1478.39 3113.27,1517.33 3134.82,1480.01 3067.36,1441.07 "/>
  <polygon class="fil3" points="1740.04,2712.18 1730.52,2676.64 1647.04,2699.01 1535.67,2634.7 1647.04,2570.41 1730.52,2592.77 1740.04,2557.25 1692.09,2544.4 1749.68,2511.14 1731.29,2479.27 1673.7,2512.53 1686.54,2464.57 1651,2455.05 1628.63,2538.55 1517.27,2602.84 1517.27,2474.25 1578.4,2413.12 1552.37,2387.12 1517.27,2422.22 1517.27,2355.71 1480.48,2355.71 1480.48,2422.22 1445.37,2387.12 1419.37,2413.12 1480.48,2474.25 1480.48,2602.84 1369.12,2538.55 1346.75,2455.05 1311.21,2464.57 1324.06,2512.53 1266.46,2479.27 1248.07,2511.14 1305.66,2544.4 1257.72,2557.25 1267.24,2592.77 1350.72,2570.41 1462.09,2634.7 1350.72,2699.01 1267.24,2676.64 1257.72,2712.18 1305.66,2725.03 1248.07,2758.28 1266.46,2790.14 1324.06,2756.88 1311.21,2804.85 1346.75,2814.37 1369.12,2730.87 1480.48,2666.58 1480.48,2795.17 1419.37,2856.3 1445.37,2882.31 1480.48,2847.2 1480.48,2913.71 1517.27,2913.71 1517.27,2847.2 1552.37,2882.31 1578.4,2856.3 1517.27,2795.17 1517.27,2666.58 1628.63,2730.87 1651,2814.37 1686.54,2804.85 1673.7,2756.88 1731.29,2790.14 1749.68,2758.28 1692.09,2725.03 "/>
  <polygon class="fil3" points="3659.51,3074.39 3650,3038.86 3566.5,3061.23 3455.14,2996.92 3566.5,2932.62 3650,2954.99 3659.51,2919.46 3611.55,2906.61 3669.16,2873.35 3650.75,2841.5 3593.17,2874.74 3606.01,2826.8 3570.48,2817.27 3548.11,2900.77 3436.75,2965.06 3436.75,2836.47 3497.86,2775.34 3471.85,2749.32 3436.75,2784.42 3436.75,2717.93 3399.94,2717.93 3399.94,2784.42 3364.85,2749.32 3338.84,2775.34 3399.94,2836.47 3399.94,2965.06 3288.58,2900.77 3266.21,2817.27 3230.69,2826.8 3243.53,2874.74 3185.94,2841.5 3167.53,2873.35 3225.14,2906.61 3177.18,2919.46 3186.7,2954.99 3270.19,2932.62 3381.56,2996.92 3270.19,3061.23 3186.7,3038.86 3177.18,3074.39 3225.14,3087.24 3167.53,3120.49 3185.94,3152.36 3243.53,3119.1 3230.69,3167.07 3266.21,3176.59 3288.58,3093.09 3399.94,3028.79 3399.94,3157.39 3338.84,3218.52 3364.85,3244.52 3399.94,3209.42 3399.94,3275.93 3436.75,3275.93 3436.75,3209.42 3471.85,3244.52 3497.86,3218.52 3436.75,3157.39 3436.75,3028.79 3548.11,3093.09 3570.48,3176.59 3606.01,3167.07 3593.17,3119.1 3650.75,3152.36 3669.16,3120.49 3611.55,3087.24 "/>
 </g>
</svg>
